<svg xmlns="http://www.w3.org/2000/svg" width="29.685" height="29.685" viewBox="0 0 29.685 29.685"><defs><style>.a{fill:#28373b;fill-rule:evenodd;}</style></defs><path class="a" d="M14.842,2.639a45.51,45.51,0,0,1,5.937.165,7.649,7.649,0,0,1,2.8.495,5.792,5.792,0,0,1,2.8,2.8,7.649,7.649,0,0,1,.495,2.8c0,1.484.165,1.979.165,5.937a45.51,45.51,0,0,1-.165,5.937,7.649,7.649,0,0,1-.495,2.8,5.792,5.792,0,0,1-2.8,2.8,7.649,7.649,0,0,1-2.8.495c-1.484,0-1.979.165-5.937.165a45.51,45.51,0,0,1-5.937-.165,7.649,7.649,0,0,1-2.8-.495,5.792,5.792,0,0,1-2.8-2.8,7.649,7.649,0,0,1-.495-2.8c0-1.484-.165-1.979-.165-5.937A45.51,45.51,0,0,1,2.8,8.905,7.649,7.649,0,0,1,3.3,6.1,5.923,5.923,0,0,1,4.453,4.453,2.788,2.788,0,0,1,6.1,3.3a7.649,7.649,0,0,1,2.8-.495,45.51,45.51,0,0,1,5.937-.165m0-2.639a48.728,48.728,0,0,0-6.1.165,10.181,10.181,0,0,0-3.628.66A6.456,6.456,0,0,0,2.474,2.474,6.456,6.456,0,0,0,.825,5.112a7.514,7.514,0,0,0-.66,3.628A48.728,48.728,0,0,0,0,14.842a48.728,48.728,0,0,0,.165,6.1,10.181,10.181,0,0,0,.66,3.628,6.456,6.456,0,0,0,1.649,2.639A6.456,6.456,0,0,0,5.112,28.86a10.181,10.181,0,0,0,3.628.66,48.728,48.728,0,0,0,6.1.165,48.728,48.728,0,0,0,6.1-.165,10.181,10.181,0,0,0,3.628-.66,6.919,6.919,0,0,0,4.288-4.288,10.181,10.181,0,0,0,.66-3.628c0-1.649.165-2.144.165-6.1a48.728,48.728,0,0,0-.165-6.1,10.181,10.181,0,0,0-.66-3.628,6.456,6.456,0,0,0-1.649-2.639A6.456,6.456,0,0,0,24.572.825a10.181,10.181,0,0,0-3.628-.66A48.728,48.728,0,0,0,14.842,0m0,7.256a7.464,7.464,0,0,0-7.586,7.586,7.586,7.586,0,1,0,7.586-7.586m0,12.534a4.859,4.859,0,0,1-4.947-4.947,4.859,4.859,0,0,1,4.947-4.947,4.859,4.859,0,0,1,4.947,4.947,4.859,4.859,0,0,1-4.947,4.947M22.758,5.112a1.814,1.814,0,1,0,1.814,1.814,1.83,1.83,0,0,0-1.814-1.814"/></svg>