<svg xmlns="http://www.w3.org/2000/svg" width="125" height="44" viewBox="0 0 125 44"><defs><style>.a{fill:#f6f7fb;font-size:18px;font-family:Raleway-Bold, Raleway;font-weight:700;}.b{fill:#fff;}.c{fill:#ff6c2c;}.d{fill:#ff1d6a;}</style></defs><g transform="translate(-129.267 -182.62)"><text class="a" transform="translate(129.267 222.62)"><tspan x="0" y="0">Fitness Center</tspan></text><g transform="translate(168.267 182.62)"><rect class="b" width="20.734" height="5.122" transform="translate(12.901 7.239)"/><path class="c" d="M221.023,202.816h0a3.315,3.315,0,0,1-3.243-3.383v-8.811a3.315,3.315,0,0,1,3.243-3.383h0a3.315,3.315,0,0,1,3.243,3.383v8.811A3.318,3.318,0,0,1,221.023,202.816Z" transform="translate(-217.78 -185.03)"/><path class="d" d="M239.5,202.615h0a3.3,3.3,0,0,1-3.243-3.351V185.971a3.3,3.3,0,0,1,3.243-3.351h0a3.3,3.3,0,0,1,3.243,3.351v13.294A3.3,3.3,0,0,1,239.5,202.615Z" transform="translate(-227.047 -182.62)"/><path class="c" d="M300.283,187.25h0a3.315,3.315,0,0,1,3.243,3.383v8.811a3.315,3.315,0,0,1-3.243,3.383h0a3.315,3.315,0,0,1-3.243-3.383v-8.811A3.311,3.311,0,0,1,300.283,187.25Z" transform="translate(-257.526 -185.036)"/><path class="d" d="M281.8,182.63h0a3.3,3.3,0,0,1,3.243,3.351v13.294a3.3,3.3,0,0,1-3.243,3.351h0a3.3,3.3,0,0,1-3.243-3.351V185.981A3.3,3.3,0,0,1,281.8,182.63Z" transform="translate(-248.259 -182.625)"/></g></g></svg>