<svg xmlns="http://www.w3.org/2000/svg" width="31.821" height="22.517" viewBox="0 0 31.821 22.517"><defs><style>.a{fill:#ff1d6a;}.b{fill:#fff;}</style></defs><g transform="translate(-1386.195 -621)"><path class="a" d="M369.166,119.25c-.012-.377-.032-.753-.062-1.13-.122-1.6-.3-3.422-1.354-4.7a5.163,5.163,0,0,0-3.624-1.49c-1.68-.19-3.367-.3-5.056-.368-3.42-.13-6.843-.055-10.263.021-1.758.039-3.515.078-5.267.217-2.152.171-4.365.487-5.366,2.637-.9,1.93-.788,4.381-.8,6.456-.011,1.862-.016,3.725.058,5.585.1,2.415.24,5.56,2.847,6.618a15,15,0,0,0,4.557.788c1.574.1,3.154.09,4.731.113,3.309.049,6.616-.065,9.923-.13a22.483,22.483,0,0,0,6.852-.821c1.9-.647,2.392-2.7,2.65-4.488a36.937,36.937,0,0,0,.187-5.356C369.176,121.889,369.212,120.567,369.166,119.25Z" transform="translate(1048.827 509.506)"/><path class="b" d="M484.212,186.095l-8.24-4.839v9.682C478.724,189.319,481.442,187.722,484.212,186.095Z" transform="translate(922.909 446.229)"/></g></svg>