<svg xmlns="http://www.w3.org/2000/svg" width="30.201" height="24.496" viewBox="0 0 30.201 24.496"><defs><style>.a{fill:#28373b;fill-rule:evenodd;}</style></defs><g transform="translate(0)"><path class="a" d="M47.564,26.5c11.409,0,17.617-9.4,17.617-17.617V8.04A13.638,13.638,0,0,0,68.2,4.852a13.928,13.928,0,0,1-3.523,1.007A6.528,6.528,0,0,0,67.362,2.5,15.389,15.389,0,0,1,63.5,4.013,5.992,5.992,0,0,0,58.973,2a6.3,6.3,0,0,0-6.208,6.208,3.271,3.271,0,0,0,.168,1.342A17.347,17.347,0,0,1,40.181,3.007a6.425,6.425,0,0,0-.839,3.188,6.666,6.666,0,0,0,2.685,5.2,5.656,5.656,0,0,1-2.852-.839h0a6.132,6.132,0,0,0,5.033,6.04,5.172,5.172,0,0,1-1.678.168,2.855,2.855,0,0,1-1.174-.168,6.356,6.356,0,0,0,5.872,4.362,12.668,12.668,0,0,1-7.718,2.685A4.645,4.645,0,0,1,38,23.476a15.837,15.837,0,0,0,9.564,3.02" transform="translate(-38 -2)"/></g></svg>