<svg xmlns="http://www.w3.org/2000/svg" width="30.963" height="30.963" viewBox="0 0 30.963 30.963"><defs><style>.a{fill:#28373b;}</style></defs><path class="a" d="M4.644,4.644A14.055,14.055,0,0,1,15.482,0,14.055,14.055,0,0,1,26.319,4.644a14.055,14.055,0,0,1,4.644,10.837,14.055,14.055,0,0,1-4.644,10.837,14.055,14.055,0,0,1-10.837,4.644A14.055,14.055,0,0,1,4.644,26.319C1.806,23.222,0,19.868,0,15.482A14.055,14.055,0,0,1,4.644,4.644Zm12.9,23.222q1.548,0,3.87-2.322a11.27,11.27,0,0,0,1.806-5.419,4.273,4.273,0,0,0-1.29-3.1,4.542,4.542,0,0,0-3.354-1.548H16a7.534,7.534,0,0,1-2.322-.516,2.342,2.342,0,0,1-.774-1.806,1.341,1.341,0,0,1,.516-1.032,1.956,1.956,0,0,1,1.032-.516,1.761,1.761,0,0,1,1.29.774c.516.258.774.516,1.032.516a1.551,1.551,0,0,0,1.032-.258,1.551,1.551,0,0,0,.258-1.032,4.106,4.106,0,0,0-1.29-2.58,10.672,10.672,0,0,0,1.29-4.9.555.555,0,0,0-.516-.516A7.976,7.976,0,0,0,15.482,3.1c-2.838.258-4.9.774-6.709,2.064a6.5,6.5,0,0,0-2.322,5.161,6.607,6.607,0,0,0,2.064,4.9,7.049,7.049,0,0,0,4.9,2.064h0V18.32a3.313,3.313,0,0,0,1.032,2.58,3.757,3.757,0,0,0,2.322,1.548v4.644c0,.258,0,.258.258.516S17.288,27.867,17.546,27.867Z"/></svg>