<svg xmlns="http://www.w3.org/2000/svg" width="40" height="40" viewBox="0 0 40 40"><defs><style>.a{fill:#ff1d6a;}.b{fill:#fff;}</style></defs><g transform="translate(0.484)"><path class="a" d="M20,0A20,20,0,1,0,40,20,20,20,0,0,0,20,0Z" transform="translate(-0.484)"/><path class="b" d="M163.567,97.122l7.942-6.806a1.157,1.157,0,0,0,0-1.817,1.7,1.7,0,0,0-2.125,0l-9,7.712a1.156,1.156,0,0,0-.044,1.774l9.036,7.765a1.691,1.691,0,0,0,2.125,0,1.157,1.157,0,0,0,0-1.817Z" transform="translate(-146.434 -77.125)"/></g></svg>